PathFileType	4	(X/Y/Z)	/Users/niels/Desktop/University/Third Semester/Perception and Action/Exam/Gymnastics Motion Tracking/Code for Gym Tracking/Analyzed Data/Webcam_Backflip/id7_1_trajectory_Sports2D/id7_1_trajectory_Sports2D_px_person00.trc
DataRate	CameraRate	NumFrames	NumMarkers	Units	OrigDataRate	OrigDataStartFrame	OrigNumFrames
29.81132075471698	29.81132075471698	11	22	m	29.81132075471698	139	159
Frame#	Time	Hip			RHip			RKnee			RAnkle			RBigToe			RSmallToe			RHeel			LHip			LKnee			LAnkle			LBigToe			LSmallToe			LHeel			Neck			Head			Nose			RShoulder			RElbow			RWrist			LShoulder			LElbow			LWrist		
		X1	Y1	Z1	X2	Y2	Z2	X3	Y3	Z3	X4	Y4	Z4	X5	Y5	Z5	X6	Y6	Z6	X7	Y7	Z7	X8	Y8	Z8	X9	Y9	Z9	X10	Y10	Z10	X11	Y11	Z11	X12	Y12	Z12	X13	Y13	Z13	X14	Y14	Z14	X15	Y15	Z15	X16	Y16	Z16	X17	Y17	Z17	X18	Y18	Z18	X19	Y19	Z19	X20	Y20	Z20	X21	Y21	Z21	X22	Y22	Z22
139	4.662658227848101	0.8521233069019396	-0.5573963313401712	0.0	0.8228410128410433	-0.5580530674427705	0.0	0.8547020051318319	-0.6759789717648805	0.0	0.8563821500717073	-0.8148366252653135	0.0	0.866374518558537	-0.843636038536007	0.0	0.8486490281608408	-0.8444962386753301	0.0	0.8549157024746554	-0.8324401949093536	0.0	0.8791274680705551	-0.56154985356782	0.0	0.8700644435590267	-0.6918695180475896	0.0	0.8602024136780969	-0.8150616264292946	0.0	0.8706562545917199	-0.8507896076502854	0.0	0.87477587504291	-0.8470588682327465	0.0	0.8547131739349981	-0.8341258199150533	0.0	0.8655761369781052	-0.3839057005571513	0.0	0.8742929584515934	-0.3029083493791003	0.0	0.8693970246107108	-0.3479191135965514	0.0	0.8130375766726557	-0.4031259975906288	0.0	0.7810467427268086	-0.4707186845581548	0.0	0.7838357330038972	-0.5424091785883361	0.0	0.9113490258948947	-0.4132429612182807	0.0	0.9153208068610784	-0.4997861507554278	0.0	0.8751327348338015	-0.5162245813611895	0.0
140	4.69620253164557	0.8524626041125126	-0.5612923229563626	0.0	0.8236271296911866	-0.562154228198837	0.0	0.8564521644523837	-0.6824514202602175	0.0	0.8564194183024811	-0.819430475933016	0.0	0.8659086885767826	-0.8460672612287307	0.0	0.8476803174499681	-0.8473125245674996	0.0	0.854343388465479	-0.8363842935488615	0.0	0.8795516864394262	-0.5655257671382155	0.0	0.870803117328302	-0.6961791362781118	0.0	0.859832054674066	-0.819478042160516	0.0	0.8710195704032003	-0.8528181297621029	0.0	0.8748165975983068	-0.8492606293972069	0.0	0.854029471890224	-0.837790738321043	0.0	0.8660868639541814	-0.3876408092443129	0.0	0.8752285745533429	-0.3064992618147043	0.0	0.8706130629728128	-0.3515245974314103	0.0	0.8138032926184401	-0.4067217562439504	0.0	0.7781375359348989	-0.47249369516930734	0.0	0.7855001475076301	-0.543775542734201	0.0	0.9116540139067136	-0.41724285364926567	0.0	0.9156903312810076	-0.5029745630417362	0.0	0.8844598231847484	-0.5359803831400447	0.0
141	4.729746835443038	0.8527535583314287	-0.5638862261728271	0.0	0.8241550374802947	-0.5649069225833477	0.0	0.8573172847350772	-0.6859848482441029	0.0	0.8562106942657456	-0.8210858390473942	0.0	0.8656493676441895	-0.8468903242145128	0.0	0.8473617250718259	-0.8481476925688188	0.0	0.8534433271303657	-0.8376202590282968	0.0	0.8799154946306303	-0.5682038665356861	0.0	0.8714558620382677	-0.6983941371080449	0.0	0.8597973963480757	-0.8218165751467437	0.0	0.8713817665944735	-0.8535900339681595	0.0	0.8754641404662168	-0.8498140420095491	0.0	0.8540189501786751	-0.8394504056913875	0.0	0.866434974355101	-0.3901786210912115	0.0	0.8757141625232074	-0.3090815732727545	0.0	0.8715157793876437	-0.3541007104852592	0.0	0.8143440020632685	-0.40923045898057625	0.0	0.775694316823578	-0.47345564408791346	0.0	0.7869053661416223	-0.544387590194708	0.0	0.911890023369849	-0.41995699488274074	0.0	0.915138774961887	-0.5051269395598621	0.0	0.8942232412025393	-0.5549329878626089	0.0
142	4.763291139240506	0.8530206033799497	-0.5649575538457263	0.0	0.8244209046120672	-0.5660641618580501	0.0	0.8570305301943688	-0.6863709464504837	0.0	0.8557463236074778	-0.8199680831310354	0.0	0.8656523606465765	-0.8462867472113607	0.0	0.8477635864475503	-0.8471708967154761	0.0	0.8522375111974692	-0.836282010200414	0.0	0.8801973362484707	-0.5693549974825266	0.0	0.8719980841643145	-0.6985777835997649	0.0	0.8600232317143648	-0.8218603947733436	0.0	0.8717659757617631	-0.8531232309682322	0.0	0.8766224609970251	-0.8488558468125694	0.0	0.8547753415776006	-0.8389663596131913	0.0	0.8666661002760503	-0.39139454366158527	0.0	0.8757533874918914	-0.3104917886768868	0.0	0.8720476642680373	-0.35550300974190735	0.0	0.8145979094522624	-0.4103682981742464	0.0	0.7737197671945405	-0.47315228765166917	0.0	0.7877618890650363	-0.5438365466028606	0.0	0.9120460908587078	-0.4211985008040213	0.0	0.9142375001781922	-0.5062530756124299	0.0	0.9042031300340116	-0.5707381439487282	0.0
143	4.796835443037974	0.8532226292385542	-0.5646546280233611	0.0	0.8244734197832635	-0.5657812693982798	0.0	0.855439701537401	-0.6839790233622712	0.0	0.8549089465028268	-0.8165427364503982	0.0	0.8657220440619082	-0.8444106574613554	0.0	0.8486048249709288	-0.8446193039947776	0.0	0.8507177528770393	-0.832702043322285	0.0	0.8803390848766081	-0.5691690021496761	0.0	0.8723526483369057	-0.6972371355233223	0.0	0.8603467078240702	-0.8197460543747499	0.0	0.8719171173570454	-0.8514363129615816	0.0	0.8778712699205099	-0.8466106768374895	0.0	0.8562050225057559	-0.8363765144272672	0.0	0.8667531268577597	-0.39139761422006863	0.0	0.8753690579414914	-0.3108160249885516	0.0	0.8722046130952377	-0.3558265177126504	0.0	0.8144945906372122	-0.4102209792757009	0.0	0.772125893148324	-0.4714184380636019	0.0	0.78787404201271	-0.5419043610028286	0.0	0.9120608666436892	-0.42107975744584797	0.0	0.9137352440989985	-0.5063674281310723	0.0	0.91404113745504	-0.5816532588600588	0.0
144	4.830379746835443	0.8532808215966785	-0.563445973903626	0.0	0.8243538333776204	-0.5645321800362663	0.0	0.852584787562244	-0.6795968981675202	0.0	0.8535223146676361	-0.8115681680777774	0.0	0.8653987562326093	-0.8415324330135912	0.0	0.8492620591921566	-0.840923843734532	0.0	0.8488279034686254	-0.8275408230000373	0.0	0.8802782947116344	-0.5681673362716143	0.0	0.8724009720979401	-0.6951618070328952	0.0	0.8605785686181373	-0.8161018816874225	0.0	0.871413731087912	-0.8488279196480546	0.0	0.8786427846646977	-0.8435512642289458	0.0	0.857972181079275	-0.8322018604897817	0.0	0.8666415150046816	-0.3904506529648393	0.0	0.8745789319100479	-0.31026191395814695	0.0	0.8720052468613143	-0.3553122549223676	0.0	0.813988329827346	-0.4091706302211536	0.0	0.7707831517783675	-0.4683955852848435	0.0	0.7872998925152118	-0.5386159698815539	0.0	0.911880611400083	-0.41993234853718797	0.0	0.9141804972029778	-0.5054335654285296	0.0	0.923208563920147	-0.5869967027936315	0.0
145	4.863924050632911	0.8531090137953076	-0.56190317171688	0.0	0.8240591368996565	-0.5628286502395686	0.0	0.8486820296339178	-0.6742897410786315	0.0	0.8513869139066331	-0.806062961031807	0.0	0.863991901770072	-0.838154734845336	0.0	0.8488661604559526	-0.8367829794818273	0.0	0.8464255852196624	-0.821832594482808	0.0	0.8799796968044026	-0.5668978510557438	0.0	0.8720462130051012	-0.6932112063215334	0.0	0.8605137328831859	-0.8119608957136002	0.0	0.8698313503379032	-0.8459527976650391	0.0	0.878420781333609	-0.8404507330337764	0.0	0.8595900302412767	-0.8275140452838168	0.0	0.8662852000763037	-0.3889300597501541	0.0	0.873407928619326	-0.3090702966967801	0.0	0.871446902503083	-0.35426835980219035	0.0	0.8131258314475963	-0.4077211040298537	0.0	0.7695806834405642	-0.4644867294718193	0.0	0.7863616562305159	-0.5342231898251798	0.0	0.9114807515063308	-0.4181958775930984	0.0	0.9156568840989943	-0.5034753598182458	0.0	0.9312161052599319	-0.5873452628618565	0.0
146	4.897468354430379	0.8526474058630134	-0.5604870951006875	0.0	0.8235616328105198	-0.5610633770595691	0.0	0.8440746511879919	-0.6692345534995228	0.0	0.8483721666829009	-0.801106737968101	0.0	0.8609367688744428	-0.8349661865619374	0.0	0.84669567444469	-0.8330362571959347	0.0	0.8433829929681302	-0.8167111119457914	0.0	0.8794481725693998	-0.5657309378376295	0.0	0.8712813135687598	-0.6920797512919683	0.0	0.8600080341056201	-0.8083817742170557	0.0	0.8669624665446429	-0.843551019473864	0.0	0.8769569322567159	-0.8381180251448286	0.0	0.8606210286914553	-0.8234958545585307	0.0	0.8656566674901047	-0.3872556003066753	0.0	0.8718862989183597	-0.3075056469488593	0.0	0.870489786816524	-0.3530042868773938	0.0	0.8120350060327816	-0.40632229860176255	0.0	0.768469539085963	-0.4602505779854874	0.0	0.7855090167040667	-0.5291857263289577	0.0	0.9108807902799626	-0.416321819910386	0.0	0.9178033863162106	-0.5007008076782822	0.0	0.9377881004843137	-0.5841606202571746	0.0
147	4.931012658227848	0.8519012656114526	-0.5594901799914463	0.0	0.8228522117109545	-0.5595855640171796	0.0	0.839192407470119	-0.6655309251834635	0.0	0.8445037756402382	-0.797592384289513	0.0	0.8561916147742019	-0.8326702639286817	0.0	0.8425623002743169	-0.8304162276650511	0.0	0.839726012784135	-0.8130395783228491	0.0	0.8787319823245923	-0.564906501975819	0.0	0.8702050947320744	-0.6921332507820095	0.0	0.8590794567760902	-0.8060876723061962	0.0	0.8629690563944563	-0.8420949906930129	0.0	0.8744154519245434	-0.8370279959408812	0.0	0.8608514918065743	-0.8209245799016247	0.0	0.864752133239587	-0.3857947077893005	0.0	0.8700177925137167	-0.3058900000032624	0.0	0.8690751652247479	-0.3517832993733886	0.0	0.8108282460825066	-0.4052963845223496	0.0	0.7674784021685352	-0.45627581243642784	0.0	0.7851652581876828	-0.5241252416394098	0.0	0.9101450060050339	-0.4147086068584586	0.0	0.9200387006282688	-0.49748651547166217	0.0	0.9428622865693355	-0.5791107530879914	0.0
148	4.964556962025316	0.8509228849754189	-0.5590823663637964	0.0	0.8219460976461864	-0.5587468992684882	0.0	0.8344925667536823	-0.6640355667608056	0.0	0.8399921732827252	-0.7960932911781936	0.0	0.8502794343979346	-0.83179284649694	0.0	0.8368733300698071	-0.8293724717561616	0.0	0.8356724406029582	-0.8112876888822713	0.0	0.8778929803613115	-0.5646167482274346	0.0	0.8689808930214348	-0.6933869100704685	0.0	0.8579264470906501	-0.8053610109189857	0.0	0.8583857593872092	-0.8416514156930927	0.0	0.8713371326228485	-0.8371701413579707	0.0	0.8603458887117538	-0.8200306210149707	0.0	0.8635907399427811	-0.38479400446919837	0.0	0.8677859131818803	-0.3045667571639748	0.0	0.8671824795164732	-0.35078717787122915	0.0	0.8095571279351323	-0.4048369216452042	0.0	0.7666968723325214	-0.45306054270674506	0.0	0.7856139140615143	-0.5196692366165642	0.0	0.9093570809777847	-0.41364942571229496	0.0	0.9218069287189014	-0.49424694278721376	0.0	0.946453510733486	-0.5735616411186778	0.0
149	4.998101265822784	0.8497510995881342	-0.5593331733187717	0.0	0.8208599744196432	-0.5587800181788378	0.0	0.830377765617562	-0.6651584950427197	0.0	0.8352634290986072	-0.7967503508868259	0.0	0.8441053889308572	-0.8324569521792632	0.0	0.8305426209469282	-0.8299492954900944	0.0	0.8316099686330511	-0.8115496230150469	0.0	0.8769570674181626	-0.5649667925725984	0.0	0.8677790930038296	-0.6955364490852378	0.0	0.8568743170795332	-0.8060533892184845	0.0	0.8540360790348871	-0.8419286153704721	0.0	0.868471861612063	-0.8381047460306631	0.0	0.8594115762893185	-0.8205870263337166	0.0	0.8622062078029301	-0.38434048587609876	0.0	0.8652145499748909	-0.3037665865898609	0.0	0.864892067504874	-0.35008544026859595	0.0	0.8082456540799534	-0.4049955535623168	0.0	0.7662190044274957	-0.45089718399246753	0.0	0.7868983630478642	-0.5162144548507611	0.0	0.9085854394309089	-0.41327534752618184	0.0	0.9227670473746181	-0.4913296439591736	0.0	0.9485513860714371	-0.5684081511884752	0.0
